<svg width="330" height="330" viewBox="0 0 330 330" fill="none" xmlns="http://www.w3.org/2000/svg">
<rect width="330" height="330" rx="165" fill="#0A0A0B"/>
<path d="M44.6934 151.406H49.1582L55.7324 170.197L62.3066 151.406H66.7715L57.5254 177H53.9395L44.6934 151.406ZM42.2852 151.406H46.7324L47.541 169.723V177H42.2852V151.406ZM64.7324 151.406H69.1973V177H63.9238V169.723L64.7324 151.406ZM80.943 155.783L73.982 177H68.3746L77.8844 151.406H81.4527L80.943 155.783ZM86.7262 177L79.7477 155.783L79.1852 151.406H82.7887L92.3512 177H86.7262ZM86.4098 167.473V171.604H72.8922V167.473H86.4098ZM100.388 151.406V177H95.132V151.406H100.388ZM108.263 151.406V155.537H87.3801V151.406H108.263ZM124.737 161.83V165.943H111.378V161.83H124.737ZM112.942 151.406V177H107.669V151.406H112.942ZM128.499 151.406V177H123.243V151.406H128.499ZM146.661 172.887V177H133.037V172.887H146.661ZM134.76 151.406V177H129.487V151.406H134.76ZM144.885 161.83V165.838H133.037V161.83H144.885ZM146.643 151.406V155.537H133.037V151.406H146.643ZM160.27 151.406H165.525V168.316C165.525 170.285 165.104 171.943 164.26 173.291C163.428 174.639 162.273 175.652 160.797 176.332C159.332 177.012 157.645 177.352 155.734 177.352C153.824 177.352 152.125 177.012 150.637 176.332C149.16 175.652 148 174.639 147.156 173.291C146.324 171.943 145.908 170.285 145.908 168.316V151.406H151.182V168.316C151.182 169.465 151.363 170.402 151.727 171.129C152.09 171.855 152.611 172.389 153.291 172.729C153.982 173.068 154.797 173.238 155.734 173.238C156.695 173.238 157.51 173.068 158.178 172.729C158.857 172.389 159.373 171.855 159.725 171.129C160.088 170.402 160.27 169.465 160.27 168.316V151.406ZM179.591 170.303C179.591 169.846 179.521 169.436 179.38 169.072C179.252 168.697 179.005 168.357 178.642 168.053C178.279 167.736 177.769 167.426 177.113 167.121C176.457 166.816 175.607 166.5 174.564 166.172C173.404 165.797 172.302 165.375 171.259 164.906C170.228 164.438 169.314 163.893 168.517 163.271C167.732 162.639 167.111 161.906 166.654 161.074C166.209 160.242 165.986 159.275 165.986 158.174C165.986 157.107 166.22 156.141 166.689 155.273C167.158 154.395 167.814 153.645 168.658 153.023C169.502 152.391 170.498 151.904 171.646 151.564C172.806 151.225 174.078 151.055 175.461 151.055C177.347 151.055 178.994 151.395 180.4 152.074C181.806 152.754 182.896 153.686 183.67 154.869C184.455 156.053 184.847 157.406 184.847 158.93H179.609C179.609 158.18 179.451 157.523 179.134 156.961C178.83 156.387 178.361 155.936 177.728 155.607C177.107 155.279 176.322 155.115 175.373 155.115C174.459 155.115 173.697 155.256 173.088 155.537C172.478 155.807 172.021 156.176 171.716 156.645C171.412 157.102 171.259 157.617 171.259 158.191C171.259 158.625 171.365 159.018 171.576 159.369C171.798 159.721 172.127 160.049 172.56 160.354C172.994 160.658 173.527 160.945 174.16 161.215C174.793 161.484 175.525 161.748 176.357 162.006C177.752 162.428 178.976 162.902 180.031 163.43C181.097 163.957 181.988 164.549 182.703 165.205C183.418 165.861 183.957 166.605 184.32 167.438C184.683 168.27 184.865 169.213 184.865 170.268C184.865 171.381 184.648 172.377 184.214 173.256C183.781 174.135 183.154 174.879 182.334 175.488C181.513 176.098 180.535 176.561 179.398 176.877C178.261 177.193 176.99 177.352 175.584 177.352C174.318 177.352 173.07 177.188 171.839 176.859C170.609 176.52 169.49 176.01 168.482 175.33C167.486 174.65 166.689 173.783 166.091 172.729C165.494 171.674 165.195 170.426 165.195 168.984H170.486C170.486 169.781 170.609 170.455 170.855 171.006C171.101 171.557 171.447 172.002 171.892 172.342C172.349 172.682 172.888 172.928 173.509 173.08C174.142 173.232 174.834 173.309 175.584 173.309C176.498 173.309 177.248 173.18 177.834 172.922C178.431 172.664 178.871 172.307 179.152 171.85C179.445 171.393 179.591 170.877 179.591 170.303ZM195.489 151.406V177H190.216V151.406H195.489ZM205.684 162.34V166.453H194.048V162.34H205.684ZM206.915 151.406V155.537H194.048V151.406H206.915ZM213.545 155.783L206.584 177H200.977L210.487 151.406H214.055L213.545 155.783ZM219.329 177L212.35 155.783L211.788 151.406H215.391L224.954 177H219.329ZM219.012 167.473V171.604H205.495V167.473H219.012ZM223.727 151.406H233.271C235.229 151.406 236.91 151.699 238.316 152.285C239.734 152.871 240.824 153.738 241.586 154.887C242.348 156.035 242.729 157.447 242.729 159.123C242.729 160.494 242.494 161.672 242.025 162.656C241.568 163.629 240.918 164.443 240.074 165.1C239.242 165.744 238.264 166.26 237.139 166.646L235.469 167.525H227.172L227.137 163.412H233.307C234.232 163.412 235 163.248 235.609 162.92C236.219 162.592 236.676 162.135 236.98 161.549C237.297 160.963 237.455 160.283 237.455 159.51C237.455 158.689 237.303 157.98 236.998 157.383C236.693 156.785 236.23 156.328 235.609 156.012C234.988 155.695 234.209 155.537 233.271 155.537H229V177H223.727V151.406ZM238.035 177L232.199 165.592L237.771 165.557L243.678 176.754V177H238.035ZM248.796 151.406V177H243.541V151.406H248.796ZM260.859 155.783L253.898 177H248.29L257.8 151.406H261.368L260.859 155.783ZM266.642 177L259.663 155.783L259.101 151.406H262.704L272.267 177H266.642ZM266.325 167.473V171.604H252.808V167.473H266.325ZM284.364 170.303C284.364 169.846 284.294 169.436 284.153 169.072C284.024 168.697 283.778 168.357 283.415 168.053C283.052 167.736 282.542 167.426 281.886 167.121C281.229 166.816 280.38 166.5 279.337 166.172C278.177 165.797 277.075 165.375 276.032 164.906C275.001 164.438 274.087 163.893 273.29 163.271C272.505 162.639 271.884 161.906 271.427 161.074C270.981 160.242 270.759 159.275 270.759 158.174C270.759 157.107 270.993 156.141 271.462 155.273C271.93 154.395 272.587 153.645 273.43 153.023C274.274 152.391 275.27 151.904 276.419 151.564C277.579 151.225 278.85 151.055 280.233 151.055C282.12 151.055 283.766 151.395 285.173 152.074C286.579 152.754 287.669 153.686 288.442 154.869C289.227 156.053 289.62 157.406 289.62 158.93H284.382C284.382 158.18 284.223 157.523 283.907 156.961C283.602 156.387 283.134 155.936 282.501 155.607C281.88 155.279 281.095 155.115 280.145 155.115C279.231 155.115 278.47 155.256 277.86 155.537C277.251 155.807 276.794 156.176 276.489 156.645C276.184 157.102 276.032 157.617 276.032 158.191C276.032 158.625 276.137 159.018 276.348 159.369C276.571 159.721 276.899 160.049 277.333 160.354C277.766 160.658 278.3 160.945 278.932 161.215C279.565 161.484 280.298 161.748 281.13 162.006C282.524 162.428 283.749 162.902 284.804 163.43C285.87 163.957 286.761 164.549 287.475 165.205C288.19 165.861 288.729 166.605 289.093 167.438C289.456 168.27 289.637 169.213 289.637 170.268C289.637 171.381 289.421 172.377 288.987 173.256C288.554 174.135 287.927 174.879 287.106 175.488C286.286 176.098 285.307 176.561 284.171 176.877C283.034 177.193 281.762 177.352 280.356 177.352C279.091 177.352 277.843 177.188 276.612 176.859C275.382 176.52 274.262 176.01 273.255 175.33C272.259 174.65 271.462 173.783 270.864 172.729C270.266 171.674 269.968 170.426 269.968 168.984H275.259C275.259 169.781 275.382 170.455 275.628 171.006C275.874 171.557 276.22 172.002 276.665 172.342C277.122 172.682 277.661 172.928 278.282 173.08C278.915 173.232 279.606 173.309 280.356 173.309C281.27 173.309 282.02 173.18 282.606 172.922C283.204 172.664 283.643 172.307 283.925 171.85C284.218 171.393 284.364 170.877 284.364 170.303Z" fill="#FFFBFF"/>
<path d="M65.1235 194H62.897L62.9116 192.85H65.1235C65.8853 192.85 66.52 192.691 67.0278 192.374C67.5356 192.052 67.9165 191.603 68.1704 191.026C68.4292 190.445 68.5586 189.767 68.5586 188.99V188.338C68.5586 187.728 68.4854 187.186 68.3389 186.712C68.1924 186.234 67.9775 185.831 67.6943 185.504C67.4111 185.172 67.0645 184.92 66.6543 184.75C66.249 184.579 65.7827 184.493 65.2554 184.493H62.853V183.336H65.2554C65.9536 183.336 66.5908 183.453 67.167 183.688C67.7432 183.917 68.2388 184.251 68.6538 184.691C69.0737 185.125 69.396 185.653 69.6206 186.273C69.8452 186.888 69.9575 187.582 69.9575 188.353V188.99C69.9575 189.762 69.8452 190.458 69.6206 191.078C69.396 191.693 69.0713 192.218 68.6465 192.652C68.2266 193.087 67.7188 193.421 67.123 193.656C66.5322 193.885 65.8657 194 65.1235 194ZM63.6514 183.336V194H62.2378V183.336H63.6514ZM82.1564 192.85V194H76.5095V192.85H82.1564ZM76.7951 183.336V194H75.3815V183.336H76.7951ZM81.4094 187.921V189.071H76.5095V187.921H81.4094ZM82.0832 183.336V184.493H76.5095V183.336H82.0832ZM92.8905 191.305C92.8905 191.056 92.8515 190.836 92.7733 190.646C92.7001 190.45 92.5683 190.274 92.3778 190.118C92.1923 189.962 91.9335 189.813 91.6015 189.671C91.2743 189.53 90.8593 189.386 90.3563 189.239C89.829 189.083 89.3529 188.91 88.9281 188.719C88.5033 188.524 88.1396 188.302 87.8368 188.053C87.5341 187.804 87.3021 187.518 87.141 187.196C86.9799 186.874 86.8993 186.505 86.8993 186.09C86.8993 185.675 86.9848 185.292 87.1557 184.94C87.3266 184.588 87.5707 184.283 87.8881 184.024C88.2104 183.761 88.5937 183.556 89.038 183.409C89.4823 183.263 89.9779 183.189 90.5248 183.189C91.3256 183.189 92.0043 183.343 92.5609 183.651C93.1225 183.954 93.5497 184.352 93.8427 184.845C94.1356 185.333 94.2821 185.855 94.2821 186.412H92.8759C92.8759 186.012 92.7904 185.658 92.6195 185.35C92.4486 185.038 92.1898 184.793 91.8432 184.618C91.4965 184.437 91.057 184.347 90.5248 184.347C90.0219 184.347 89.6068 184.422 89.2797 184.574C88.9525 184.725 88.7084 184.93 88.5473 185.189C88.391 185.448 88.3129 185.743 88.3129 186.075C88.3129 186.3 88.3593 186.505 88.4521 186.69C88.5497 186.871 88.6986 187.04 88.8988 187.196C89.1039 187.352 89.3627 187.496 89.6752 187.628C89.9926 187.76 90.371 187.887 90.8104 188.009C91.4159 188.18 91.9384 188.37 92.3778 188.58C92.8173 188.79 93.1786 189.027 93.4618 189.291C93.7499 189.549 93.9623 189.845 94.099 190.177C94.2406 190.504 94.3114 190.875 94.3114 191.29C94.3114 191.725 94.2235 192.118 94.0478 192.469C93.872 192.821 93.6205 193.121 93.2934 193.37C92.9662 193.619 92.5731 193.812 92.1142 193.949C91.6601 194.081 91.1522 194.146 90.5907 194.146C90.0976 194.146 89.6117 194.078 89.1332 193.941C88.6596 193.805 88.2274 193.6 87.8368 193.326C87.4511 193.053 87.141 192.716 86.9066 192.315C86.6771 191.91 86.5624 191.441 86.5624 190.909H87.9687C87.9687 191.275 88.0395 191.59 88.1811 191.854C88.3227 192.113 88.5155 192.328 88.7597 192.499C89.0087 192.669 89.2895 192.796 89.602 192.879C89.9193 192.958 90.2489 192.997 90.5907 192.997C91.0839 192.997 91.5014 192.928 91.8432 192.792C92.185 192.655 92.4438 192.459 92.6195 192.206C92.8002 191.952 92.8905 191.651 92.8905 191.305ZM106.188 192.85V194H100.541V192.85H106.188ZM100.827 183.336V194H99.4132V183.336H100.827ZM105.441 187.921V189.071H100.541V187.921H105.441ZM106.115 183.336V184.493H100.541V183.336H106.115ZM119.442 183.336V194H118.021L112.652 185.775V194H111.239V183.336H112.652L118.043 191.583V183.336H119.442ZM128.689 192.381L131.831 183.336H133.362L129.414 194H128.323L128.689 192.381ZM125.752 183.336L128.865 192.381L129.253 194H128.162L124.221 183.336H125.752ZM146.205 188.331V189.005C146.205 189.806 146.105 190.523 145.905 191.158C145.705 191.793 145.417 192.333 145.041 192.777C144.665 193.221 144.213 193.561 143.686 193.795C143.163 194.029 142.577 194.146 141.928 194.146C141.298 194.146 140.719 194.029 140.192 193.795C139.67 193.561 139.216 193.221 138.83 192.777C138.449 192.333 138.154 191.793 137.944 191.158C137.734 190.523 137.629 189.806 137.629 189.005V188.331C137.629 187.53 137.731 186.815 137.936 186.185C138.146 185.55 138.442 185.011 138.822 184.566C139.203 184.117 139.655 183.775 140.177 183.541C140.705 183.307 141.283 183.189 141.913 183.189C142.563 183.189 143.149 183.307 143.671 183.541C144.198 183.775 144.65 184.117 145.026 184.566C145.407 185.011 145.697 185.55 145.898 186.185C146.103 186.815 146.205 187.53 146.205 188.331ZM144.806 189.005V188.316C144.806 187.682 144.74 187.12 144.609 186.632C144.482 186.144 144.294 185.733 144.045 185.401C143.796 185.069 143.49 184.818 143.129 184.647C142.773 184.476 142.367 184.391 141.913 184.391C141.474 184.391 141.076 184.476 140.719 184.647C140.368 184.818 140.065 185.069 139.811 185.401C139.562 185.733 139.369 186.144 139.233 186.632C139.096 187.12 139.028 187.682 139.028 188.316V189.005C139.028 189.645 139.096 190.211 139.233 190.704C139.369 191.192 139.565 191.605 139.819 191.942C140.077 192.274 140.383 192.525 140.734 192.696C141.091 192.867 141.488 192.953 141.928 192.953C142.387 192.953 142.795 192.867 143.151 192.696C143.508 192.525 143.808 192.274 144.052 191.942C144.301 191.605 144.489 191.192 144.616 190.704C144.743 190.211 144.806 189.645 144.806 189.005ZM158.089 192.85V194H152.757V192.85H158.089ZM153.036 183.336V194H151.622V183.336H153.036ZM165.161 192.381L168.303 183.336H169.834L165.886 194H164.795L165.161 192.381ZM162.224 183.336L165.337 192.381L165.725 194H164.634L160.693 183.336H162.224ZM181.345 192.85V194H175.698V192.85H181.345ZM175.983 183.336V194H174.57V183.336H175.983ZM180.597 187.921V189.071H175.698V187.921H180.597ZM181.271 183.336V184.493H175.698V183.336H181.271ZM189.281 194H187.054L187.069 192.85H189.281C190.042 192.85 190.677 192.691 191.185 192.374C191.693 192.052 192.074 191.603 192.328 191.026C192.586 190.445 192.716 189.767 192.716 188.99V188.338C192.716 187.728 192.643 187.186 192.496 186.712C192.35 186.234 192.135 185.831 191.852 185.504C191.568 185.172 191.222 184.92 190.812 184.75C190.406 184.579 189.94 184.493 189.413 184.493H187.01V183.336H189.413C190.111 183.336 190.748 183.453 191.324 183.688C191.9 183.917 192.396 184.251 192.811 184.691C193.231 185.125 193.553 185.653 193.778 186.273C194.002 186.888 194.115 187.582 194.115 188.353V188.99C194.115 189.762 194.002 190.458 193.778 191.078C193.553 191.693 193.229 192.218 192.804 192.652C192.384 193.087 191.876 193.421 191.28 193.656C190.689 193.885 190.023 194 189.281 194ZM187.809 183.336V194H186.395V183.336H187.809ZM207.749 188.331V189.005C207.749 189.806 207.649 190.523 207.449 191.158C207.249 191.793 206.961 192.333 206.585 192.777C206.209 193.221 205.757 193.561 205.23 193.795C204.707 194.029 204.121 194.146 203.472 194.146C202.842 194.146 202.263 194.029 201.736 193.795C201.214 193.561 200.759 193.221 200.374 192.777C199.993 192.333 199.697 191.793 199.488 191.158C199.278 190.523 199.173 189.806 199.173 189.005V188.331C199.173 187.53 199.275 186.815 199.48 186.185C199.69 185.55 199.986 185.011 200.366 184.566C200.747 184.117 201.199 183.775 201.721 183.541C202.249 183.307 202.827 183.189 203.457 183.189C204.107 183.189 204.693 183.307 205.215 183.541C205.742 183.775 206.194 184.117 206.57 184.566C206.951 185.011 207.241 185.55 207.442 186.185C207.647 186.815 207.749 187.53 207.749 188.331ZM206.35 189.005V188.316C206.35 187.682 206.284 187.12 206.153 186.632C206.026 186.144 205.838 185.733 205.589 185.401C205.34 185.069 205.034 184.818 204.673 184.647C204.317 184.476 203.911 184.391 203.457 184.391C203.018 184.391 202.62 184.476 202.263 184.647C201.912 184.818 201.609 185.069 201.355 185.401C201.106 185.733 200.913 186.144 200.777 186.632C200.64 187.12 200.571 187.682 200.571 188.316V189.005C200.571 189.645 200.64 190.211 200.777 190.704C200.913 191.192 201.109 191.605 201.363 191.942C201.621 192.274 201.926 192.525 202.278 192.696C202.634 192.867 203.032 192.953 203.472 192.953C203.931 192.953 204.339 192.867 204.695 192.696C205.051 192.525 205.352 192.274 205.596 191.942C205.845 191.605 206.033 191.192 206.16 190.704C206.287 190.211 206.35 189.645 206.35 189.005ZM213.166 183.336H216.696C217.497 183.336 218.173 183.458 218.725 183.702C219.282 183.946 219.704 184.308 219.992 184.786C220.285 185.26 220.432 185.843 220.432 186.537C220.432 187.025 220.331 187.472 220.131 187.877C219.936 188.277 219.653 188.619 219.282 188.902C218.915 189.181 218.476 189.388 217.963 189.525L217.568 189.679H214.25L214.235 188.529H216.74C217.248 188.529 217.67 188.441 218.007 188.265C218.344 188.084 218.598 187.843 218.769 187.54C218.94 187.237 219.025 186.903 219.025 186.537C219.025 186.126 218.945 185.768 218.784 185.46C218.622 185.152 218.369 184.916 218.022 184.75C217.68 184.579 217.238 184.493 216.696 184.493H214.579V194H213.166V183.336ZM219.399 194L216.806 189.166L218.278 189.159L220.908 193.912V194H219.399ZM235.535 190.777L237.652 183.336H238.677L238.084 186.229L235.806 194H234.788L235.535 190.777ZM233.345 183.336L235.03 190.631L235.535 194H234.524L231.939 183.336H233.345ZM241.416 190.624L243.064 183.336H244.478L241.9 194H240.889L241.416 190.624ZM238.831 183.336L240.889 190.777L241.636 194H240.618L238.421 186.229L237.82 183.336H238.831ZM256.12 192.85V194H250.473V192.85H256.12ZM250.759 183.336V194H249.345V183.336H250.759ZM255.373 187.921V189.071H250.473V187.921H255.373ZM256.047 183.336V184.493H250.473V183.336H256.047ZM264.972 189.012H262.269L262.255 187.877H264.708C265.113 187.877 265.467 187.809 265.77 187.672C266.073 187.535 266.307 187.34 266.473 187.086C266.644 186.827 266.73 186.52 266.73 186.163C266.73 185.772 266.654 185.455 266.503 185.211C266.356 184.962 266.129 184.781 265.821 184.669C265.519 184.552 265.133 184.493 264.664 184.493H262.584V194H261.171V183.336H264.664C265.211 183.336 265.699 183.392 266.129 183.504C266.559 183.612 266.923 183.783 267.22 184.017C267.523 184.247 267.753 184.54 267.909 184.896C268.065 185.252 268.143 185.68 268.143 186.178C268.143 186.617 268.031 187.015 267.806 187.372C267.582 187.723 267.269 188.011 266.869 188.236C266.473 188.46 266.009 188.604 265.477 188.668L264.972 189.012ZM264.906 194H261.713L262.511 192.85H264.906C265.355 192.85 265.736 192.772 266.049 192.616C266.366 192.459 266.608 192.24 266.774 191.957C266.94 191.668 267.023 191.329 267.023 190.938C267.023 190.543 266.952 190.201 266.81 189.913C266.669 189.625 266.446 189.403 266.144 189.247C265.841 189.09 265.45 189.012 264.972 189.012H262.958L262.972 187.877H265.726L266.027 188.287C266.539 188.331 266.974 188.478 267.33 188.727C267.687 188.971 267.958 189.283 268.143 189.664C268.334 190.045 268.429 190.465 268.429 190.924C268.429 191.588 268.282 192.149 267.989 192.608C267.701 193.062 267.294 193.409 266.766 193.648C266.239 193.883 265.619 194 264.906 194Z" fill="#61F2C2"/>
</svg>
