<svg width="168" height="37" viewBox="0 0 168 37" fill="none" xmlns="http://www.w3.org/2000/svg">
<path d="M3.12891 4.9375H6.10547L10.4883 17.4648L14.8711 4.9375H17.8477L11.6836 22H9.29297L3.12891 4.9375ZM1.52344 4.9375H4.48828L5.02734 17.1484V22H1.52344V4.9375ZM16.4883 4.9375H19.4648V22H15.9492V17.1484L16.4883 4.9375ZM27.2953 7.85547L22.6547 22H18.9164L25.2563 4.9375H27.6352L27.2953 7.85547ZM31.1508 22L26.4984 7.85547L26.1234 4.9375H28.5258L34.9008 22H31.1508ZM30.9398 15.6484V18.4023H21.9281V15.6484H30.9398ZM40.2586 4.9375V22H36.7547V4.9375H40.2586ZM45.5086 4.9375V7.69141H31.5867V4.9375H45.5086ZM56.4914 11.8867V14.6289H47.5852V11.8867H56.4914ZM48.6281 4.9375V22H45.1125V4.9375H48.6281ZM58.9992 4.9375V22H55.4953V4.9375H58.9992ZM71.107 19.2578V22H62.025V19.2578H71.107ZM63.1734 4.9375V22H59.6578V4.9375H63.1734ZM69.9234 11.8867V14.5586H62.025V11.8867H69.9234ZM71.0953 4.9375V7.69141H62.025V4.9375H71.0953ZM80.1797 4.9375H83.6836V16.2109C83.6836 17.5234 83.4023 18.6289 82.8398 19.5273C82.2852 20.4258 81.5156 21.1016 80.5312 21.5547C79.5547 22.0078 78.4297 22.2344 77.1562 22.2344C75.8828 22.2344 74.75 22.0078 73.7578 21.5547C72.7734 21.1016 72 20.4258 71.4375 19.5273C70.8828 18.6289 70.6055 17.5234 70.6055 16.2109V4.9375H74.1211V16.2109C74.1211 16.9766 74.2422 17.6016 74.4844 18.0859C74.7266 18.5703 75.0742 18.9258 75.5273 19.1523C75.9883 19.3789 76.5312 19.4922 77.1562 19.4922C77.7969 19.4922 78.3398 19.3789 78.7852 19.1523C79.2383 18.9258 79.582 18.5703 79.8164 18.0859C80.0586 17.6016 80.1797 16.9766 80.1797 16.2109V4.9375ZM93.0609 17.5352C93.0609 17.2305 93.0141 16.957 92.9203 16.7148C92.8344 16.4648 92.6703 16.2383 92.4281 16.0352C92.1859 15.8242 91.8461 15.6172 91.4086 15.4141C90.9711 15.2109 90.4047 15 89.7094 14.7812C88.9359 14.5312 88.2016 14.25 87.5062 13.9375C86.8187 13.625 86.2094 13.2617 85.6781 12.8477C85.1547 12.4258 84.7406 11.9375 84.4359 11.3828C84.1391 10.8281 83.9906 10.1836 83.9906 9.44922C83.9906 8.73828 84.1469 8.09375 84.4594 7.51562C84.7719 6.92969 85.2094 6.42969 85.7719 6.01562C86.3344 5.59375 86.9984 5.26953 87.7641 5.04297C88.5375 4.81641 89.3852 4.70312 90.307 4.70312C91.5648 4.70312 92.6625 4.92969 93.6 5.38281C94.5375 5.83594 95.2641 6.45703 95.7797 7.24609C96.3031 8.03516 96.5648 8.9375 96.5648 9.95312H93.0727C93.0727 9.45312 92.9672 9.01562 92.7562 8.64062C92.5531 8.25781 92.2406 7.95703 91.8187 7.73828C91.4047 7.51953 90.8812 7.41016 90.2484 7.41016C89.6391 7.41016 89.1312 7.50391 88.725 7.69141C88.3187 7.87109 88.0141 8.11719 87.8109 8.42969C87.6078 8.73438 87.5062 9.07812 87.5062 9.46094C87.5062 9.75 87.5766 10.0117 87.7172 10.2461C87.8656 10.4805 88.0844 10.6992 88.3734 10.9023C88.6625 11.1055 89.018 11.2969 89.4398 11.4766C89.8617 11.6562 90.35 11.832 90.9047 12.0039C91.8344 12.2852 92.6508 12.6016 93.3539 12.9531C94.0648 13.3047 94.6586 13.6992 95.1352 14.1367C95.6117 14.5742 95.9711 15.0703 96.2133 15.625C96.4555 16.1797 96.5766 16.8086 96.5766 17.5117C96.5766 18.2539 96.432 18.918 96.143 19.5039C95.8539 20.0898 95.4359 20.5859 94.8891 20.9922C94.3422 21.3984 93.6898 21.707 92.932 21.918C92.1742 22.1289 91.3266 22.2344 90.3891 22.2344C89.5453 22.2344 88.7133 22.125 87.893 21.9062C87.0727 21.6797 86.3266 21.3398 85.6547 20.8867C84.9906 20.4336 84.4594 19.8555 84.0609 19.1523C83.6625 18.4492 83.4633 17.6172 83.4633 16.6562H86.9906C86.9906 17.1875 87.0727 17.6367 87.2367 18.0039C87.4008 18.3711 87.6312 18.668 87.9281 18.8945C88.2328 19.1211 88.5922 19.2852 89.0062 19.3867C89.4281 19.4883 89.8891 19.5391 90.3891 19.5391C90.9984 19.5391 91.4984 19.4531 91.8891 19.2812C92.2875 19.1094 92.5805 18.8711 92.768 18.5664C92.9633 18.2617 93.0609 17.918 93.0609 17.5352ZM103.659 4.9375V22H100.144V4.9375H103.659ZM110.456 12.2266V14.9688H102.698V12.2266H110.456ZM111.277 4.9375V7.69141H102.698V4.9375H111.277ZM115.697 7.85547L111.056 22H107.318L113.658 4.9375H116.037L115.697 7.85547ZM119.552 22L114.9 7.85547L114.525 4.9375H116.927L123.302 22H119.552ZM119.341 15.6484V18.4023H110.33V15.6484H119.341ZM122.484 4.9375H128.848C130.152 4.9375 131.273 5.13281 132.211 5.52344C133.156 5.91406 133.883 6.49219 134.391 7.25781C134.898 8.02344 135.152 8.96484 135.152 10.082C135.152 10.9961 134.996 11.7812 134.684 12.4375C134.379 13.0859 133.945 13.6289 133.383 14.0664C132.828 14.4961 132.176 14.8398 131.426 15.0977L130.312 15.6836H124.781L124.758 12.9414H128.871C129.488 12.9414 130 12.832 130.406 12.6133C130.812 12.3945 131.117 12.0898 131.32 11.6992C131.531 11.3086 131.637 10.8555 131.637 10.3398C131.637 9.79297 131.535 9.32031 131.332 8.92188C131.129 8.52344 130.82 8.21875 130.406 8.00781C129.992 7.79688 129.473 7.69141 128.848 7.69141H126V22H122.484V4.9375ZM132.023 22L128.133 14.3945L131.848 14.3711L135.785 21.8359V22H132.023ZM139.198 4.9375V22H135.694V4.9375H139.198ZM147.239 7.85547L142.598 22H138.86L145.2 4.9375H147.579L147.239 7.85547ZM151.095 22L146.442 7.85547L146.067 4.9375H148.47L154.845 22H151.095ZM150.884 15.6484V18.4023H141.872V15.6484H150.884ZM162.909 17.5352C162.909 17.2305 162.863 16.957 162.769 16.7148C162.683 16.4648 162.519 16.2383 162.277 16.0352C162.034 15.8242 161.695 15.6172 161.257 15.4141C160.82 15.2109 160.253 15 159.558 14.7812C158.784 14.5312 158.05 14.25 157.355 13.9375C156.667 13.625 156.058 13.2617 155.527 12.8477C155.003 12.4258 154.589 11.9375 154.284 11.3828C153.988 10.8281 153.839 10.1836 153.839 9.44922C153.839 8.73828 153.995 8.09375 154.308 7.51562C154.62 6.92969 155.058 6.42969 155.62 6.01562C156.183 5.59375 156.847 5.26953 157.613 5.04297C158.386 4.81641 159.234 4.70312 160.155 4.70312C161.413 4.70312 162.511 4.92969 163.448 5.38281C164.386 5.83594 165.113 6.45703 165.628 7.24609C166.152 8.03516 166.413 8.9375 166.413 9.95312H162.921C162.921 9.45312 162.816 9.01562 162.605 8.64062C162.402 8.25781 162.089 7.95703 161.667 7.73828C161.253 7.51953 160.73 7.41016 160.097 7.41016C159.488 7.41016 158.98 7.50391 158.573 7.69141C158.167 7.87109 157.863 8.11719 157.659 8.42969C157.456 8.73438 157.355 9.07812 157.355 9.46094C157.355 9.75 157.425 10.0117 157.566 10.2461C157.714 10.4805 157.933 10.6992 158.222 10.9023C158.511 11.1055 158.866 11.2969 159.288 11.4766C159.71 11.6562 160.198 11.832 160.753 12.0039C161.683 12.2852 162.499 12.6016 163.202 12.9531C163.913 13.3047 164.507 13.6992 164.984 14.1367C165.46 14.5742 165.82 15.0703 166.062 15.625C166.304 16.1797 166.425 16.8086 166.425 17.5117C166.425 18.2539 166.28 18.918 165.991 19.5039C165.702 20.0898 165.284 20.5859 164.738 20.9922C164.191 21.3984 163.538 21.707 162.78 21.918C162.023 22.1289 161.175 22.2344 160.238 22.2344C159.394 22.2344 158.562 22.125 157.741 21.9062C156.921 21.6797 156.175 21.3398 155.503 20.8867C154.839 20.4336 154.308 19.8555 153.909 19.1523C153.511 18.4492 153.312 17.6172 153.312 16.6562H156.839C156.839 17.1875 156.921 17.6367 157.085 18.0039C157.249 18.3711 157.48 18.668 157.777 18.8945C158.081 19.1211 158.441 19.2852 158.855 19.3867C159.277 19.4883 159.738 19.5391 160.238 19.5391C160.847 19.5391 161.347 19.4531 161.738 19.2812C162.136 19.1094 162.429 18.8711 162.616 18.5664C162.812 18.2617 162.909 17.918 162.909 17.5352Z" fill="#FFFBFF"/>
<path d="M16.749 34H15.2646L15.2744 33.2334H16.749C17.2568 33.2334 17.68 33.1276 18.0186 32.916C18.3571 32.7012 18.611 32.4017 18.7803 32.0176C18.9528 31.6302 19.0391 31.1777 19.0391 30.6602V30.2256C19.0391 29.8187 18.9902 29.4574 18.8926 29.1416C18.7949 28.8226 18.6517 28.554 18.4629 28.3359C18.2741 28.1146 18.043 27.9469 17.7695 27.833C17.4993 27.7191 17.1885 27.6621 16.8369 27.6621H15.2354V26.8906H16.8369C17.3024 26.8906 17.7272 26.9688 18.1113 27.125C18.4954 27.278 18.8258 27.501 19.1025 27.7939C19.3825 28.0837 19.5973 28.4352 19.7471 28.8486C19.8968 29.2588 19.9717 29.721 19.9717 30.2354V30.6602C19.9717 31.1745 19.8968 31.6383 19.7471 32.0518C19.5973 32.4619 19.3809 32.8118 19.0977 33.1016C18.8177 33.3913 18.4792 33.6143 18.082 33.7705C17.6882 33.9235 17.2438 34 16.749 34ZM15.7676 26.8906V34H14.8252V26.8906H15.7676ZM28.1043 33.2334V34H24.3396V33.2334H28.1043ZM24.5301 26.8906V34H23.5877V26.8906H24.5301ZM27.6062 29.9473V30.7139H24.3396V29.9473H27.6062ZM28.0555 26.8906V27.6621H24.3396V26.8906H28.0555ZM35.2604 32.2031C35.2604 32.0371 35.2343 31.8906 35.1822 31.7637C35.1334 31.6335 35.0455 31.5163 34.9186 31.4121C34.7949 31.3079 34.6223 31.2087 34.401 31.1143C34.1829 31.0199 33.9062 30.9238 33.5709 30.8262C33.2193 30.722 32.902 30.6064 32.6187 30.4795C32.3355 30.3493 32.093 30.2012 31.8912 30.0352C31.6894 29.8691 31.5348 29.6787 31.4273 29.4639C31.3199 29.249 31.2662 29.0033 31.2662 28.7266C31.2662 28.4499 31.3232 28.1943 31.4371 27.96C31.551 27.7256 31.7138 27.5221 31.9254 27.3496C32.1402 27.1738 32.3958 27.0371 32.692 26.9395C32.9882 26.8418 33.3186 26.793 33.6832 26.793C34.2171 26.793 34.6695 26.8955 35.0406 27.1006C35.415 27.3024 35.6998 27.5677 35.8951 27.8965C36.0904 28.222 36.1881 28.5703 36.1881 28.9414H35.2506C35.2506 28.6745 35.1936 28.4385 35.0797 28.2334C34.9658 28.0251 34.7932 27.8623 34.5621 27.7451C34.331 27.6247 34.038 27.5645 33.6832 27.5645C33.3479 27.5645 33.0712 27.6149 32.8531 27.7158C32.635 27.8167 32.4723 27.9535 32.3648 28.126C32.2607 28.2985 32.2086 28.4954 32.2086 28.7168C32.2086 28.8665 32.2395 29.0033 32.3014 29.127C32.3665 29.2474 32.4658 29.3597 32.5992 29.4639C32.7359 29.568 32.9085 29.6641 33.1168 29.752C33.3284 29.8398 33.5807 29.9245 33.8736 30.0059C34.2773 30.1198 34.6256 30.2467 34.9186 30.3867C35.2115 30.5267 35.4524 30.6846 35.6412 30.8604C35.8333 31.0329 35.9749 31.2298 36.066 31.4512C36.1604 31.6693 36.2076 31.9167 36.2076 32.1934C36.2076 32.4831 36.149 32.7451 36.0318 32.9795C35.9146 33.2139 35.747 33.4141 35.5289 33.5801C35.3108 33.7461 35.0488 33.8747 34.7428 33.9658C34.44 34.0537 34.1015 34.0977 33.7271 34.0977C33.3984 34.0977 33.0745 34.0521 32.7555 33.9609C32.4397 33.8698 32.1516 33.7331 31.8912 33.5508C31.634 33.3685 31.4273 33.1439 31.2711 32.877C31.1181 32.6068 31.0416 32.2943 31.0416 31.9395H31.9791C31.9791 32.1836 32.0263 32.3936 32.1207 32.5693C32.2151 32.7419 32.3437 32.8851 32.5064 32.999C32.6725 33.113 32.8596 33.1976 33.068 33.2529C33.2796 33.305 33.4993 33.3311 33.7271 33.3311C34.0559 33.3311 34.3342 33.2855 34.5621 33.1943C34.79 33.1032 34.9625 32.973 35.0797 32.8037C35.2001 32.6344 35.2604 32.4342 35.2604 32.2031ZM44.1254 33.2334V34H40.3607V33.2334H44.1254ZM40.5512 26.8906V34H39.6088V26.8906H40.5512ZM43.6273 29.9473V30.7139H40.3607V29.9473H43.6273ZM44.0766 26.8906V27.6621H40.3607V26.8906H44.0766ZM52.9611 26.8906V34H52.0139L48.4348 28.5166V34H47.4924V26.8906H48.4348L52.0285 32.3887V26.8906H52.9611ZM59.126 32.9209L61.2207 26.8906H62.2412L59.6094 34H58.8818L59.126 32.9209ZM57.168 26.8906L59.2432 32.9209L59.502 34H58.7744L56.1475 26.8906H57.168ZM70.8035 30.2207V30.6699C70.8035 31.2038 70.7368 31.6823 70.6033 32.1055C70.4699 32.5286 70.2778 32.8883 70.0271 33.1846C69.7765 33.4808 69.4754 33.707 69.1238 33.8633C68.7755 34.0195 68.3849 34.0977 67.952 34.0977C67.532 34.0977 67.1463 34.0195 66.7947 33.8633C66.4464 33.707 66.1437 33.4808 65.8865 33.1846C65.6326 32.8883 65.4357 32.5286 65.2957 32.1055C65.1557 31.6823 65.0857 31.2038 65.0857 30.6699V30.2207C65.0857 29.6868 65.1541 29.21 65.2908 28.79C65.4308 28.3669 65.6277 28.0072 65.8816 27.7109C66.1355 27.4115 66.4367 27.1836 66.785 27.0273C67.1365 26.8711 67.5223 26.793 67.9422 26.793C68.3751 26.793 68.7658 26.8711 69.1141 27.0273C69.4656 27.1836 69.7667 27.4115 70.0174 27.7109C70.2713 28.0072 70.465 28.3669 70.5984 28.79C70.7352 29.21 70.8035 29.6868 70.8035 30.2207ZM69.8709 30.6699V30.2109C69.8709 29.7878 69.827 29.4134 69.7391 29.0879C69.6544 28.7624 69.5291 28.4889 69.3631 28.2676C69.1971 28.0462 68.9936 27.8786 68.7527 27.7646C68.5151 27.6507 68.2449 27.5938 67.9422 27.5938C67.6492 27.5938 67.3839 27.6507 67.1463 27.7646C66.9119 27.8786 66.7101 28.0462 66.5408 28.2676C66.3748 28.4889 66.2462 28.7624 66.1551 29.0879C66.0639 29.4134 66.0184 29.7878 66.0184 30.2109V30.6699C66.0184 31.0964 66.0639 31.474 66.1551 31.8027C66.2462 32.1283 66.3764 32.4033 66.5457 32.6279C66.7182 32.8493 66.9217 33.0169 67.1561 33.1309C67.3937 33.2448 67.659 33.3018 67.952 33.3018C68.2579 33.3018 68.5298 33.2448 68.7674 33.1309C69.005 33.0169 69.2052 32.8493 69.368 32.6279C69.534 32.4033 69.6593 32.1283 69.7439 31.8027C69.8286 31.474 69.8709 31.0964 69.8709 30.6699ZM78.7262 33.2334V34H75.1715V33.2334H78.7262ZM75.357 26.8906V34H74.4146V26.8906H75.357ZM83.4408 32.9209L85.5355 26.8906H86.5561L83.9242 34H83.1967L83.4408 32.9209ZM81.4828 26.8906L83.558 32.9209L83.8168 34H83.0893L80.4623 26.8906H81.4828ZM94.2297 33.2334V34H90.465V33.2334H94.2297ZM90.6555 26.8906V34H89.7131V26.8906H90.6555ZM93.7316 29.9473V30.7139H90.465V29.9473H93.7316ZM94.1809 26.8906V27.6621H90.465V26.8906H94.1809ZM99.5205 34H98.0361L98.0459 33.2334H99.5205C100.028 33.2334 100.451 33.1276 100.79 32.916C101.129 32.7012 101.382 32.4017 101.552 32.0176C101.724 31.6302 101.811 31.1777 101.811 30.6602V30.2256C101.811 29.8187 101.762 29.4574 101.664 29.1416C101.566 28.8226 101.423 28.554 101.234 28.3359C101.046 28.1146 100.814 27.9469 100.541 27.833C100.271 27.7191 99.96 27.6621 99.6084 27.6621H98.0068V26.8906H99.6084C100.074 26.8906 100.499 26.9688 100.883 27.125C101.267 27.278 101.597 27.501 101.874 27.7939C102.154 28.0837 102.369 28.4352 102.519 28.8486C102.668 29.2588 102.743 29.721 102.743 30.2354V30.6602C102.743 31.1745 102.668 31.6383 102.519 32.0518C102.369 32.4619 102.152 32.8118 101.869 33.1016C101.589 33.3913 101.251 33.6143 100.854 33.7705C100.46 33.9235 100.015 34 99.5205 34ZM98.5391 26.8906V34H97.5967V26.8906H98.5391ZM111.833 30.2207V30.6699C111.833 31.2038 111.766 31.6823 111.633 32.1055C111.499 32.5286 111.307 32.8883 111.056 33.1846C110.806 33.4808 110.505 33.707 110.153 33.8633C109.805 34.0195 109.414 34.0977 108.981 34.0977C108.561 34.0977 108.176 34.0195 107.824 33.8633C107.476 33.707 107.173 33.4808 106.916 33.1846C106.662 32.8883 106.465 32.5286 106.325 32.1055C106.185 31.6823 106.115 31.2038 106.115 30.6699V30.2207C106.115 29.6868 106.183 29.21 106.32 28.79C106.46 28.3669 106.657 28.0072 106.911 27.7109C107.165 27.4115 107.466 27.1836 107.814 27.0273C108.166 26.8711 108.552 26.793 108.971 26.793C109.404 26.793 109.795 26.8711 110.143 27.0273C110.495 27.1836 110.796 27.4115 111.047 27.7109C111.301 28.0072 111.494 28.3669 111.628 28.79C111.764 29.21 111.833 29.6868 111.833 30.2207ZM110.9 30.6699V30.2109C110.9 29.7878 110.856 29.4134 110.768 29.0879C110.684 28.7624 110.558 28.4889 110.392 28.2676C110.226 28.0462 110.023 27.8786 109.782 27.7646C109.544 27.6507 109.274 27.5938 108.971 27.5938C108.679 27.5938 108.413 27.6507 108.176 27.7646C107.941 27.8786 107.739 28.0462 107.57 28.2676C107.404 28.4889 107.276 28.7624 107.184 29.0879C107.093 29.4134 107.048 29.7878 107.048 30.2109V30.6699C107.048 31.0964 107.093 31.474 107.184 31.8027C107.276 32.1283 107.406 32.4033 107.575 32.6279C107.748 32.8493 107.951 33.0169 108.185 33.1309C108.423 33.2448 108.688 33.3018 108.981 33.3018C109.287 33.3018 109.559 33.2448 109.797 33.1309C110.034 33.0169 110.235 32.8493 110.397 32.6279C110.563 32.4033 110.689 32.1283 110.773 31.8027C110.858 31.474 110.9 31.0964 110.9 30.6699ZM115.444 26.8906H117.797C118.331 26.8906 118.782 26.972 119.15 27.1348C119.521 27.2975 119.803 27.5384 119.995 27.8574C120.19 28.1732 120.288 28.5622 120.288 29.0244C120.288 29.3499 120.221 29.6478 120.088 29.918C119.957 30.1849 119.768 30.4128 119.521 30.6016C119.277 30.7871 118.984 30.9255 118.642 31.0166L118.379 31.1191H116.167L116.157 30.3525H117.827C118.165 30.3525 118.447 30.2939 118.671 30.1768C118.896 30.0563 119.065 29.8952 119.179 29.6934C119.293 29.4915 119.35 29.2686 119.35 29.0244C119.35 28.751 119.296 28.5117 119.189 28.3066C119.082 28.1016 118.912 27.9437 118.681 27.833C118.453 27.7191 118.159 27.6621 117.797 27.6621H116.386V34H115.444V26.8906ZM119.599 34L117.871 30.7773L118.852 30.7725L120.605 33.9414V34H119.599ZM130.357 31.8516L131.768 26.8906H132.451L132.056 28.8193L130.537 34H129.859L130.357 31.8516ZM128.897 26.8906L130.02 31.7539L130.357 34H129.683L127.959 26.8906H128.897ZM134.278 31.749L135.376 26.8906H136.319L134.6 34H133.926L134.278 31.749ZM132.554 26.8906L133.926 31.8516L134.424 34H133.745L132.28 28.8193L131.88 26.8906H132.554ZM144.08 33.2334V34H140.315V33.2334H144.08ZM140.506 26.8906V34H139.563V26.8906H140.506ZM143.582 29.9473V30.7139H140.315V29.9473H143.582ZM144.031 26.8906V27.6621H140.315V26.8906H144.031ZM149.981 30.6748H148.179L148.17 29.918H149.805C150.076 29.918 150.312 29.8724 150.513 29.7812C150.715 29.6901 150.872 29.5599 150.982 29.3906C151.096 29.2181 151.153 29.013 151.153 28.7754C151.153 28.515 151.103 28.3034 151.002 28.1406C150.904 27.9746 150.753 27.8542 150.548 27.7793C150.346 27.7012 150.089 27.6621 149.776 27.6621H148.389V34H147.447V26.8906H149.776C150.141 26.8906 150.466 26.9281 150.753 27.0029C151.039 27.0745 151.282 27.1885 151.48 27.3447C151.682 27.4977 151.835 27.693 151.939 27.9307C152.043 28.1683 152.096 28.4531 152.096 28.7852C152.096 29.0781 152.021 29.3434 151.871 29.5811C151.721 29.8154 151.513 30.0075 151.246 30.1572C150.982 30.307 150.673 30.403 150.318 30.4453L149.981 30.6748ZM149.937 34H147.808L148.341 33.2334H149.937C150.237 33.2334 150.491 33.1813 150.699 33.0771C150.911 32.973 151.072 32.8265 151.182 32.6377C151.293 32.4456 151.348 32.2194 151.348 31.959C151.348 31.6953 151.301 31.4674 151.207 31.2754C151.112 31.0833 150.964 30.9352 150.762 30.8311C150.561 30.7269 150.3 30.6748 149.981 30.6748H148.638L148.648 29.918H150.484L150.684 30.1914C151.026 30.2207 151.316 30.3184 151.554 30.4844C151.791 30.6471 151.972 30.8555 152.096 31.1094C152.222 31.3633 152.286 31.6432 152.286 31.9492C152.286 32.3919 152.188 32.7663 151.993 33.0723C151.801 33.375 151.529 33.6061 151.178 33.7656C150.826 33.9219 150.413 34 149.937 34Z" fill="#61F2C2"/>
</svg>
